{"title":"Outrage Born In Terror 2009.DvDRip.XviD.Ac3.Feel-Free","uid":5836789,"size":1243808020,"categoryP":"video","categoryS":"movies","magnet":"?xt=urn:btih:549bc5f3af01b7b7b883a091b1b02a8c835cfe15&amp;dn=+Outrage+Born+In+Terror+2009.DvDRip.XviD.Ac3.Feel-Free&amp;tr=udp%3A%2F%2Ftracker.openbittorrent.com%3A80&amp;tr=udp%3A%2F%2Fopen.demonii.com%3A1337&amp;tr=udp%3A%2F%2Ftracker.coppersurfer.tk%3A6969&amp;tr=udp%3A%2F%2Fexodus.desync.com%3A6969","seeders":0,"leechers":1,"uploader":"neon","files":-1,"time":1284749102,"description":"Genre:Thriller\nLanguage: English\n &lt;a href=&quot; http://www.imdb.com/title/tt1023344/&quot; rel=&quot;nofollow&quot; target=&quot;_NEW&quot;&gt; http://www.imdb.com/title/tt1023344/&lt;/a&gt;\nSource:DVD\n\nChristine takes her best friend with another couple for a final vacation when she goes to close up and sell her family's hunting lodge in the remote woods of Northern Georgia...but it's also the scene of her worst childhood trauma.\n\nGeneral\nComplete name :Outrage Born In Terror 2009 DvDRip.XviD.Ac3.Feel-Free\nFormat : AVI\nFormat/Info : Audio Video Interleave\nFile size : 1.16 GiB\nDuration : 1h 27mn\nOverall bit rate : 1 902 Kbps\nVideo #0\nID : 0\nFormat : MPEG-4 Visual\nFormat profile : AdvancedSimple@L5\nFormat settings, BVOP : Yes\nFormat settings, QPel : No\nFormat settings, GMC : No warppoints\nFormat settings, Matrix : Default (H.263)\nMuxing mode : Packed bitstream\nCodec ID : XVID\nCodec ID/Hint : XviD\nDuration : 1h 27mn\nBit rate : 1 444 Kbps\nWidth : 626 pixels\nHeight : 352 pixels\nDisplay aspect ratio : 16:9\nFrame rate : 23.976 fps\nResolution : 24 bits\nColorimetry : 4:2:0\nScan type : Progressive\nBits/(Pixel*Frame) : 0.273\nStream size : 900 MiB (76%)\nWriting library : XviD 1.2.1 (UTC 2008-12-04)\nAudio #1\nID : 1\nFormat : AC-3\nFormat/Info : Audio Coding 3\nCodec ID : 2000\nDuration : 1h 27mn\nBit rate mode : Constant\nBit rate : 448 Kbps\nChannel(s) : 6 channels\nChannel positions : Front: L C R, Surround: L R, LFE\nSampling rate : 48.0 KHz\nStream size : 279 MiB (24%)\nAlignment : Split accross interleaves\nInterleave, duration : 42 ms (1.00 video frame)\nInterleave, preload duration : 500 ms\n","torrent":{"xt":"urn:btih:549bc5f3af01b7b7b883a091b1b02a8c835cfe15","amp;dn":"+Outrage+Born+In+Terror+2009.DvDRip.XviD.Ac3.Feel-Free","amp;tr":["udp%3A%2F%2Ftracker.openbittorrent.com%3A80","udp%3A%2F%2Fopen.demonii.com%3A1337","udp%3A%2F%2Ftracker.coppersurfer.tk%3A6969","udp%3A%2F%2Fexodus.desync.com%3A6969"],"infoHash":"549bc5f3af01b7b7b883a091b1b02a8c835cfe15","infoHashBuffer":{"type":"Buffer","data":[84,155,197,243,175,1,183,183,184,131,160,145,177,176,42,140,131,92,254,21]},"announce":[],"urlList":[]}}